<svg xmlns="http://www.w3.org/2000/svg" fill="none" viewBox="0 0 13 6">
  <g clip-path="url(#zPYOCtotUypa)">
    <path d="M10.73 3.773c-.05.09-.11.174-.177.252a3.31 3.31 0 01-1.153.82l-.303.114a2.4 2.4 0 01-.686.07 5.78 5.78 0 01-1.039-.157 18.294 18.294 0 01-2.733-1.111c-1.41-.654-2.47-.85-3.177-.59.71-.49 1.843-.374 3.403.347.9.461 1.838.846 2.803 1.149a2.85 2.85 0 001.803 0l.23-.083a2.21 2.21 0 00.94-.804 5.568 5.568 0 01-1.547-.15c-.105 0-1.473-.47-4.105-1.41-1.928-.76-3.126-1.032-3.594-.813a1.7 1.7 0 00-.93.96 1.466 1.466 0 00.091 1.235 1.847 1.847 0 001.265.852 1.529 1.529 0 01-1.556-.675 1.697 1.697 0 01-.142-1.548 1.807 1.807 0 011.118-1.097A2.411 2.411 0 013 1.207c.63.246 1.39.506 2.276.78l3.16 1.1a7.885 7.885 0 001.567.365c.28.025.544.039.794.037.067-.17.122-.345.165-.522a2.492 2.492 0 00-.213-1.393l-.157-.264a2.085 2.085 0 00-.586-.59 2.032 2.032 0 00-.75-.365 2.732 2.732 0 00-1.363.008l-.184.073a2.389 2.389 0 00-.956.611l-.014.009c.21-.408.568-.72 1-.876l.074-.024a2.402 2.402 0 011.615-.04 2.744 2.744 0 011.495 1.447c.227.5.267 1.065.112 1.592-.05.12-.1.232-.148.332.498-.004.99-.112 1.443-.318l.015-.007.009.022-.442.268c-.37.18-.77.29-1.18.32z" fill="#AB9162"/>
  </g>
  <defs>
    <clipPath id="zPYOCtotUypa">
      <path fill="#fff" d="M0 0h12.354v5.03H0z"/>
    </clipPath>
  </defs>
</svg>
