<svg xmlns="http://www.w3.org/2000/svg" fill="none" viewBox="0 0 122 12">
  <g clip-path="url(#5kPaqVEavP1a)" fill="#AB9162">
    <path d="M0 .278h3.152c.419 0 .837.033 1.25.1.404.06.79.202 1.137.418.342.22.624.522.819.88.23.462.34.975.316 1.49a2.26 2.26 0 01-.494 1.453c-.376.439-.897.73-1.468.819v.03c.342.027.677.113.989.256.29.134.553.322.772.555.22.24.391.52.502.827.121.337.181.693.178 1.051a2.918 2.918 0 01-.363 1.538 2.79 2.79 0 01-.912.934 3.49 3.49 0 01-1.19.463 6.24 6.24 0 01-1.196.124H0V.278zm1.02 4.727h2.116a3.58 3.58 0 001.282-.194c.287-.102.55-.262.773-.47a1.41 1.41 0 00.37-.595 2.178 2.178 0 00-.1-1.528 1.6 1.6 0 00-.518-.603 2.064 2.064 0 00-.757-.317 4.282 4.282 0 00-.91-.092H1.02v3.799zm0 5.283h2.332c.49.018.98-.056 1.444-.216.319-.113.607-.298.843-.54a1.71 1.71 0 00.393-.688c.063-.213.097-.434.101-.656.01-.36-.07-.715-.232-1.036a2.065 2.065 0 00-.602-.703 2.483 2.483 0 00-.842-.393 3.736 3.736 0 00-.95-.124H1.018v4.356zM13.842.278h6.69v.927h-5.67v3.893h5.314v.927h-5.315v4.263h5.918v.929h-6.937V.277zm13.564 8.914c.242.438.604.797 1.044 1.035.452.233.954.35 1.462.34a2.9 2.9 0 00.958-.156c.285-.095.55-.241.78-.432.22-.185.4-.414.526-.672a2.02 2.02 0 00.193-.888c.013-.33-.07-.657-.24-.94a1.92 1.92 0 00-.641-.611 4.81 4.81 0 00-.904-.409 84.99 84.99 0 00-1.035-.34 11.6 11.6 0 01-1.035-.386 3.467 3.467 0 01-.903-.563 2.518 2.518 0 01-.641-.873 3.117 3.117 0 01-.24-1.3 2.82 2.82 0 01.286-1.289c.184-.367.448-.688.773-.94a3.42 3.42 0 011.12-.571c.43-.13.878-.195 1.328-.193a4.3 4.3 0 011.661.317 3.15 3.15 0 011.321 1.057l-.881.633a2.584 2.584 0 00-.903-.81A2.614 2.614 0 0030.207.93a3.326 3.326 0 00-.943.132c-.282.079-.546.21-.78.386-.223.172-.405.39-.533.641-.14.283-.209.596-.201.911-.03.459.12.91.418 1.26.294.304.65.541 1.044.695.443.178.896.327 1.358.448.47.121.926.295 1.357.518.416.213.774.523 1.045.903.304.475.45 1.035.418 1.598.009.454-.086.903-.278 1.313a2.885 2.885 0 01-.749.966 3.24 3.24 0 01-1.089.596 4.14 4.14 0 01-1.282.2 5.137 5.137 0 01-1.993-.379 3.645 3.645 0 01-1.56-1.274l.967-.652zm14.831-7.987h-3.738V.278h8.497v.927h-3.739v10.012h-1.02V1.205zm27.684 8.296a4.644 4.644 0 01-1.823 1.53 5.412 5.412 0 01-2.24.463 6.027 6.027 0 01-2.295-.425 5.148 5.148 0 01-1.784-1.19 5.453 5.453 0 01-1.159-1.822 6.585 6.585 0 010-4.611 5.47 5.47 0 011.16-1.816A5.253 5.253 0 0163.562.433a5.925 5.925 0 012.295-.432 5.454 5.454 0 012.078.393 4.11 4.11 0 011.69 1.321l-.835.696a3.017 3.017 0 00-1.305-1.128 3.946 3.946 0 00-1.63-.357 4.797 4.797 0 00-1.923.372 4.282 4.282 0 00-1.46 1.02 4.519 4.519 0 00-.928 1.528 5.734 5.734 0 000 3.801 4.51 4.51 0 00.928 1.529c.41.438.907.786 1.46 1.02a4.795 4.795 0 001.923.37 3.97 3.97 0 001.738-.409c.29-.142.562-.317.81-.522a3.39 3.39 0 00.68-.765l.837.631zM75.9.278h1.018v10.01h5.099v.929H75.9V.277zm15.185 0h1.051l4.604 10.937h-1.144l-1.19-2.904h-5.793l-1.235 2.905H86.31L91.085.278zm.479 1.112l-2.548 5.994h5.02L91.564 1.39zm11.154 7.802c.242.438.605.797 1.045 1.035.451.233.954.35 1.462.34.326.002.649-.05.958-.156.284-.095.549-.241.779-.432.221-.185.4-.414.526-.672a1.99 1.99 0 00.193-.888c.013-.33-.07-.657-.24-.94a1.914 1.914 0 00-.641-.611 4.77 4.77 0 00-.904-.409 86.21 86.21 0 00-1.035-.34c-.355-.114-.7-.243-1.034-.386a3.436 3.436 0 01-.903-.563 2.516 2.516 0 01-.642-.873 3.125 3.125 0 01-.239-1.3 2.798 2.798 0 01.286-1.289c.184-.367.448-.688.772-.94a3.42 3.42 0 011.12-.571c.431-.13.879-.195 1.329-.193a4.3 4.3 0 011.661.317c.528.225.985.59 1.32 1.057l-.881.633A2.431 2.431 0 00105.519.93a3.322 3.322 0 00-.943.132 2.33 2.33 0 00-.779.386 1.89 1.89 0 00-.534.641c-.14.283-.209.596-.201.911-.03.459.12.91.418 1.26.294.304.65.541 1.044.695.443.178.896.327 1.358.448.47.121.926.295 1.358.518a2.93 2.93 0 011.044.903 2.7 2.7 0 01.418 1.598 2.96 2.96 0 01-.278 1.313 2.883 2.883 0 01-.749.966c-.321.267-.691.47-1.089.596a4.138 4.138 0 01-1.283.2 5.136 5.136 0 01-1.993-.379 3.646 3.646 0 01-1.56-1.274l.968-.652zm12.699 0c.242.438.604.797 1.044 1.035.451.232.953.35 1.46.34.326.002.649-.05.958-.156.284-.095.549-.241.78-.432.22-.185.399-.414.525-.672.132-.277.198-.581.193-.888.013-.33-.07-.657-.239-.94a1.914 1.914 0 00-.641-.611 4.79 4.79 0 00-.904-.409 75.883 75.883 0 00-1.035-.34c-.355-.114-.7-.243-1.035-.386a3.494 3.494 0 01-.904-.563 2.527 2.527 0 01-.64-.873 3.109 3.109 0 01-.239-1.3 2.81 2.81 0 01.285-1.289c.184-.367.448-.688.772-.94a3.437 3.437 0 011.12-.571c.431-.13.878-.195 1.328-.193a4.298 4.298 0 011.661.317c.529.225.985.59 1.321 1.057l-.88.633a2.59 2.59 0 00-.903-.81 2.62 2.62 0 00-1.229-.271 3.314 3.314 0 00-.94.132 2.33 2.33 0 00-.78.386c-.223.172-.405.39-.534.641a1.968 1.968 0 00-.201.911c-.029.459.12.91.418 1.26.294.304.65.541 1.045.695.442.178.896.327 1.357.448a6.52 6.52 0 011.358.518c.415.213.773.523 1.044.903.304.476.45 1.035.418 1.598a2.96 2.96 0 01-.278 1.313 2.88 2.88 0 01-.749.966c-.322.267-.691.47-1.089.596a4.136 4.136 0 01-1.282.2 5.14 5.14 0 01-1.994-.379 3.644 3.644 0 01-1.559-1.274l.968-.652z"/>
  </g>
  <defs>
    <clipPath id="5kPaqVEavP1a">
      <path fill="#fff" d="M0 0h121.395v11.493H0z"/>
    </clipPath>
  </defs>
</svg>
