<svg xmlns="http://www.w3.org/2000/svg" fill="none" viewBox="0 0 13 6">
  <g clip-path="url(#Y5Wb9ONpl0a)">
    <path d="M10.966 3.855a1.695 1.695 0 01-.182.258 3.39 3.39 0 01-1.178.839l-.31.115a2.47 2.47 0 01-.701.072 5.906 5.906 0 01-1.062-.16 18.693 18.693 0 01-2.792-1.136C3.3 3.176 2.218 2.975 1.495 3.24c.724-.5 1.883-.382 3.477.355.92.471 1.877.864 2.864 1.174.598.2 1.244.2 1.842 0l.235-.085c.392-.176.725-.461.96-.82a5.69 5.69 0 01-1.58-.154c-.107 0-1.505-.48-4.194-1.44-1.971-.779-3.195-1.056-3.673-.832a1.737 1.737 0 00-.951.981 1.498 1.498 0 00.094 1.262 1.888 1.888 0 001.292.87 1.562 1.562 0 01-1.59-.689A1.734 1.734 0 01.126 2.28 1.847 1.847 0 011.27 1.16a2.464 2.464 0 011.796.075c.644.25 1.42.516 2.326.796L8.62 3.154c.52.179 1.056.304 1.6.374.287.025.557.039.812.037a4.05 4.05 0 00.169-.533c.066-.486-.01-.98-.218-1.423l-.16-.27a2.13 2.13 0 00-.6-.603 2.075 2.075 0 00-.766-.373A2.791 2.791 0 008.065.37l-.188.075a2.44 2.44 0 00-.977.624l-.015.009C7.1.662 7.465.343 7.907.184L7.983.16a2.455 2.455 0 011.65-.04 2.804 2.804 0 011.528 1.478c.232.511.272 1.088.115 1.627a9.278 9.278 0 01-.152.34 3.648 3.648 0 001.474-.326l.017-.007.008.022-.451.275a3.332 3.332 0 01-1.206.327z" fill="#AB9162"/>
  </g>
  <defs>
    <clipPath id="Y5Wb9ONpl0a">
      <path fill="#fff" d="M0 0h12.624v5.14H0z"/>
    </clipPath>
  </defs>
</svg>
